name C:\Users\r0593348\3dpredictsim\Results\MidTarsalJoint\Fal_s1_bCst_PF_Natali2010_ls150_MT_k100_d020_MTP_T5_ig24.mot
datacolumns 128
datarows 4
range 1.74094522 1.77576413
endheader
time	pelvis_tilt	pelvis_list	pelvis_rotation	pelvis_tx	pelvis_ty	pelvis_tz	hip_flexion_l	hip_adduction_l	hip_rotation_l	hip_flexion_r	hip_adduction_r	hip_rotation_r	knee_angle_l	knee_angle_r	ankle_angle_l	ankle_angle_r	subtalar_angle_l	subtalar_angle_r	mtj_angle_l	mtj_angle_r	mtp_angle_l	mtp_angle_r	lumbar_extension	lumbar_bending	lumbar_rotation	arm_flex_l	arm_add_l	arm_rot_l	arm_flex_r	arm_add_r	arm_rot_r	elbow_flex_l	elbow_flex_r	pro_sup_l	pro_sup_r	glut_med1_l/activation	glut_med2_l/activation	glut_med3_l/activation	glut_min1_l/activation	glut_min2_l/activation	glut_min3_l/activation	semimem_l/activation	semiten_l/activation	bifemlh_l/activation	bifemsh_l/activation	sar_l/activation	add_long_l/activation	add_brev_l/activation	add_mag1_l/activation	add_mag2_l/activation	add_mag3_l/activation	tfl_l/activation	pect_l/activation	grac_l/activation	glut_max1_l/activation	glut_max2_l/activation	glut_max3_l/activation	iliacus_l/activation	psoas_l/activation	quad_fem_l/activation	gem_l/activation	peri_l/activation	rect_fem_l/activation	vas_med_l/activation	vas_int_l/activation	vas_lat_l/activation	med_gas_l/activation	lat_gas_l/activation	soleus_l/activation	tib_post_l/activation	flex_dig_l/activation	flex_hal_l/activation	tib_ant_l/activation	per_brev_l/activation	per_long_l/activation	per_tert_l/activation	ext_dig_l/activation	ext_hal_l/activation	ercspn_l/activation	intobl_l/activation	extobl_l/activation	glut_med1_r/activation	glut_med2_r/activation	glut_med3_r/activation	glut_min1_r/activation	glut_min2_r/activation	glut_min3_r/activation	semimem_r/activation	semiten_r/activation	bifemlh_r/activation	bifemsh_r/activation	sar_r/activation	add_long_r/activation	add_brev_r/activation	add_mag1_r/activation	add_mag2_r/activation	add_mag3_r/activation	tfl_r/activation	pect_r/activation	grac_r/activation	glut_max1_r/activation	glut_max2_r/activation	glut_max3_r/activation	iliacus_r/activation	psoas_r/activation	quad_fem_r/activation	gem_r/activation	peri_r/activation	rect_fem_r/activation	vas_med_r/activation	vas_int_r/activation	vas_lat_r/activation	med_gas_r/activation	lat_gas_r/activation	soleus_r/activation	tib_post_r/activation	flex_dig_r/activation	flex_hal_r/activation	tib_ant_r/activation	per_brev_r/activation	per_long_r/activation	per_tert_r/activation	ext_dig_r/activation	ext_hal_r/activation	ercspn_r/activation	intobl_r/activation	extobl_r/activation	
          1.74094522	         -2.93008318	          2.44070395	         -5.98155038	          2.17618153	          0.91787068	          0.00111166	         29.50131893	          3.62793809	         -1.49547731	        -16.09745239	         -1.84381712	          6.71259927	        -11.02293539	        -10.27171147	          4.80215300	         -5.15316879	         -4.97052262	         12.12984536	         -0.08440488	         10.82799228	         -0.79807309	          1.30588435	         -1.85438049	         -0.51175983	          2.27435067	         -5.01412599	        -13.47859972	          7.88945760	          5.41743665	        -13.45540854	         17.71110353	         15.29650909	         35.07449342	         86.51662706	         86.51662706	          0.05967185	          0.05967186	          0.05000014	          0.05967193	          0.05967191	          0.05035197	          0.20513771	          0.06094831	          0.12175831	          0.05000036	          0.05000033	          0.14445132	          0.30105776	          0.13560546	          0.16985853	          0.11049189	          0.05000010	          0.08484921	          0.11890518	          0.05000050	          0.09314879	          0.15803129	          0.05000173	          0.05000020	          0.19214537	          0.28468657	          0.13353329	          0.05000035	          0.12787416	          0.12615196	          0.11327311	          0.05893428	          0.05521268	          0.05823379	          0.05000002	          0.05000050	          0.05000022	          0.51550764	          0.25607097	          0.16810485	          0.22162851	          0.45038561	          0.21479632	          0.05412141	          0.11764813	          0.10191094	          0.23875337	          0.10346252	          0.07502226	          0.27260737	          0.20475985	          0.11631819	          0.05000097	          0.05000021	          0.05000015	          0.05252561	          0.11909175	          0.06784883	          0.05007140	          0.05000088	          0.05000137	          0.05000046	          0.30338140	          0.07815012	          0.05000251	          0.05000221	          0.05000154	          0.05000106	          0.42170980	          0.60311013	          0.05000046	          0.05000065	          0.05000069	          0.26790376	          0.05000058	          0.05000053	          0.05000044	          0.29112189	          0.40409697	          0.38280253	          0.26383276	          0.22238582	          0.30537574	          0.05000003	          0.05967211	          0.17228007	          0.05000020	          0.05000005	          0.05000018	          0.05000001	          0.05000011	          0.05000037	
          1.75255152	         -2.92888624	          2.53056278	         -6.27153851	          2.19373046	          0.91672466	          0.00091626	         28.82534435	          3.99722740	         -1.24253128	        -16.01407723	         -2.15813442	          6.50792585	        -11.22224405	        -12.11623017	          4.08808539	         -5.64796138	         -5.33517430	         13.03670041	         -0.03074852	          9.71202923	         -0.81137772	          2.75199911	         -1.65265547	         -0.70858857	          2.34676903	         -5.95174256	        -13.47783708	          7.68867467	          5.09993294	        -13.46686199	         17.96883435	         14.93316516	         36.33266612	         86.51662706	         86.51662706	          0.05000000	          0.05000002	          0.10054034	          0.05000003	          0.05000003	          0.05000005	          0.17188809	          0.05106957	          0.10202315	          0.05000008	          0.05000122	          0.12103815	          0.26994314	          0.31541307	          0.21230525	          0.11556756	          0.05000032	          0.07121243	          0.14060648	          0.06410094	          0.10432096	          0.13241695	          0.05000006	          0.05000096	          0.45937404	          0.23854319	          0.11188959	          0.05967235	          0.14275062	          0.14346658	          0.12230651	          0.05000392	          0.05967924	          0.05000005	          0.06428649	          0.05000337	          0.05967217	          0.44499832	          0.27129242	          0.20219433	          0.18570599	          0.42153233	          0.17998113	          0.05000000	          0.09857915	          0.08539272	          0.20005509	          0.08669283	          0.06286239	          0.22842194	          0.17157143	          0.09746482	          0.05000180	          0.05000036	          0.05000039	          0.05000013	          0.09978903	          0.14267795	          0.05045897	          0.05967246	          0.05967164	          0.05967190	          0.25420799	          0.06548608	          0.05015568	          0.05000222	          0.05000164	          0.05000270	          0.35777525	          0.57160672	          0.05474404	          0.05967996	          0.06765902	          0.24209551	          0.06994264	          0.09981772	          0.17206281	          0.24393544	          0.33859900	          0.34184078	          0.22406549	          0.18634083	          0.25587941	          0.05000003	          0.05000027	          0.18480904	          0.05000009	          0.05000003	          0.05000014	          0.05466280	          0.06351017	          0.05967236	
          1.76415783	         -2.92358713	          2.62108291	         -6.52639431	          2.21160757	          0.91565706	          0.00074611	         28.02683242	          4.27751978	         -0.96614172	        -15.87277418	         -2.46936299	          6.29994619	        -11.71193988	        -14.03477612	          3.51939352	         -6.25231490	         -5.71387768	         13.87727548	         -0.27148191	          8.28701976	         -0.83304806	          4.52117803	         -1.42787679	         -0.91565362	          2.40569624	         -6.91715376	        -13.48347525	          7.54805087	          4.69063811	        -13.47471224	         18.13217802	         14.62073629	         37.58127227	         86.51662706	         86.51662706	          0.23674549	          0.23719360	          0.28209731	          0.35209070	          0.21791411	          0.18805292	          0.14801255	          0.05804810	          0.09226587	          0.08370997	          0.05000172	          0.10141972	          0.22618947	          0.26428943	          0.17789389	          0.11547281	          0.05000027	          0.05967201	          0.11781668	          0.11671744	          0.12380236	          0.11095425	          0.05770276	          0.05000042	          0.38491647	          0.19987901	          0.21496600	          0.05000038	          0.11961295	          0.12021286	          0.10248251	          0.05000029	          0.05000621	          0.05000039	          0.05386666	          0.05000024	          0.05000045	          0.53739929	          0.33516719	          0.17622875	          0.32763749	          0.49959987	          0.19852357	          0.05808623	          0.12105140	          0.07155185	          0.33414768	          0.07264127	          0.05967188	          0.31108224	          0.14376247	          0.08166731	          0.05000090	          0.05000012	          0.05000011	          0.05000015	          0.08440185	          0.11955204	          0.05000031	          0.05000060	          0.05000061	          0.05000036	          0.26754185	          0.05487250	          0.05000059	          0.05000304	          0.05000155	          0.05000060	          0.30449119	          0.54326719	          0.05000045	          0.05000715	          0.05669266	          0.20285553	          0.05860628	          0.08363901	          0.14417421	          0.20439719	          0.28371723	          0.28643355	          0.18774790	          0.15613792	          0.21440533	          0.05000001	          0.11399418	          0.20182488	          0.05000011	          0.05000006	          0.05000011	          0.05000015	          0.05321613	          0.05000039	
          1.77576413	         -2.91675941	          2.70164401	         -6.74089313	          2.22958194	          0.91474241	          0.00055740	         27.18571185	          4.53287131	         -0.69359932	        -15.62728930	         -2.76397855	          6.10638518	        -12.16707766	        -16.07671105	          2.94415785	         -6.96294106	         -6.09731204	         14.65148630	         -0.31579005	          6.56369754	         -0.76665193	          6.53651009	         -1.20538209	         -1.12161242	          2.45450659	         -7.85948973	        -13.48777698	          7.46682081	          4.22824797	        -13.48643362	         18.22773383	         14.33798520	         38.79588675	         86.51662706	         86.51662706	          0.33384089	          0.33466051	          0.36736600	          0.29502222	          0.18259384	          0.19067521	          0.12402200	          0.08333248	          0.07946882	          0.07014204	          0.05000033	          0.08498114	          0.18952761	          0.22145230	          0.14909594	          0.15452340	          0.05000018	          0.05000129	          0.09872130	          0.22374767	          0.18336494	          0.15294177	          0.05000004	          0.05000005	          0.32252736	          0.16748169	          0.18012354	          0.05000003	          0.13488417	          0.14982485	          0.10597090	          0.05000001	          0.05000002	          0.05000000	          0.05000000	          0.05000007	          0.05000006	          0.59727193	          0.28778244	          0.16152340	          0.55158850	          0.53378926	          0.29925836	          0.07880531	          0.10143080	          0.05995438	          0.28781956	          0.06086724	          0.05000012	          0.26066096	          0.12046082	          0.06843031	          0.05000131	          0.05000013	          0.05000011	          0.05000013	          0.07072194	          0.10967570	          0.05000028	          0.05000039	          0.05000070	          0.05000032	          0.22417758	          0.05000566	          0.05000061	          0.05000158	          0.05000091	          0.05000045	          0.25513783	          0.50445436	          0.05000015	          0.05000054	          0.05000013	          0.16997573	          0.08808758	          0.11250019	          0.12080665	          0.17126749	          0.23773095	          0.24000700	          0.15731683	          0.13083040	          0.17965352	          0.07595384	          0.15054593	          0.18049584	          0.05000019	          0.11529577	          0.05000051	          0.07485170	          0.05000000	          0.05000002	
